<svg id="Capa_1" enable-background="new 0 0 379.181 379.181" height="512" viewBox="0 0 379.181 379.181" width="512" xmlns="http://www.w3.org/2000/svg"><g><path d="m239.316 0h-99.45c-10.773 0-19.506 8.733-19.506 19.506v340.169c0 10.773 8.733 19.506 19.506 19.506h99.45c10.772 0 19.506-8.733 19.506-19.506v-340.169c-.001-10.773-8.734-19.506-19.506-19.506z" fill="#ebf0f3"/><path d="m189.588 342.167c-2.116 0-4.25-.226-6.341-.666-11.324-2.398-20.417-11.661-22.623-23.054-2.415-12.489 3.008-24.586 13.607-30.952v-235.127c0-8.466 6.891-15.352 15.357-15.352s15.352 6.887 15.352 15.352v235.149c8.692 5.304 14.175 14.883 14.175 25.124 0 7.889-3.072 15.305-8.649 20.878-5.577 5.576-12.993 8.648-20.878 8.648z" fill="#d5d6db"/><path d="m200.572 290.102v-180.608h-21.97v180.603c-10.236 4.933-15.911 16.022-13.688 27.517 1.877 9.69 9.605 17.571 19.239 19.611 1.796.38 3.627.572 5.432.572h.004c6.716 0 13.035-2.616 17.789-7.369 4.753-4.749 7.369-11.068 7.369-17.789 0-9.668-5.582-18.369-14.175-22.537z" fill="#e56353"/><g fill="#4d5c7d"><path d="m220.201 37.015h22.582v5.431h-22.582z"/><path d="m220.201 56.317h11.291v5.431h-11.291z"/><path d="m220.201 75.618h22.582v5.431h-22.582z"/><path d="m220.201 94.92h11.291v5.431h-11.291z"/><path d="m220.201 114.221h22.582v5.431h-22.582z"/><path d="m220.201 133.523h11.291v5.431h-11.291z"/><path d="m220.201 152.824h22.582v5.431h-22.582z"/><path d="m220.201 172.126h11.291v5.431h-11.291z"/><path d="m220.201 191.428h22.582v5.431h-22.582z"/><path d="m220.201 210.729h11.291v5.431h-11.291z"/><path d="m220.201 230.031h22.582v5.431h-22.582z"/><path d="m220.201 249.332h11.291v5.431h-11.291z"/><path d="m220.201 268.634h22.582v5.431h-22.582z"/><path d="m158.98 42.446h-22.582v-5.431h22.582z"/><path d="m158.98 61.748h-11.291v-5.431h11.291z"/><path d="m158.98 81.049h-22.582v-5.431h22.582z"/><path d="m158.98 100.351h-11.291v-5.431h11.291z"/><path d="m158.98 119.652h-22.582v-5.431h22.582z"/><path d="m158.98 138.954h-11.291v-5.431h11.291z"/><path d="m158.98 158.255h-22.582v-5.431h22.582z"/><path d="m158.98 177.557h-11.291v-5.431h11.291z"/><path d="m158.98 196.858h-22.582v-5.431h22.582z"/><path d="m158.98 216.16h-11.291v-5.431h11.291z"/><path d="m158.98 235.462h-22.582v-5.431h22.582z"/><path d="m158.98 254.763h-11.291v-5.431h11.291z"/><path d="m158.98 274.065h-22.582v-5.431h22.582z"/></g></g></svg>