<svg data-v-fde0c5aa="" xmlns="http://www.w3.org/2000/svg" viewBox="0 0 300 300" class="iconLeftSlogan"><!----><defs data-v-fde0c5aa=""><!----></defs><rect data-v-fde0c5aa="" fill="transparent" x="0" y="0" width="300px" height="300px" class="logo-background-square"></rect><defs data-v-fde0c5aa=""><!----></defs><g data-v-fde0c5aa="" id="74a850fc-4006-4fb4-a4e3-69d689708193" fill="#000000" transform="matrix(4.474990721969475,0,0,4.474990721969475,130.89651596410715,85.22611245349586)"><path d="M5.33 11.79L5.33 11.79L5.33 11.94L5.33 11.94Q6.81 12.07 7.61 12.64L7.61 12.64L7.61 12.64Q8.42 13.21 8.42 14.19L8.42 14.19L8.42 14.19Q8.42 14.85 8.18 15.36L8.18 15.36L8.18 15.36Q7.94 15.87 7.55 16.20L7.55 16.20L7.55 16.20Q7.16 16.52 6.61 16.73L6.61 16.73L6.61 16.73Q6.06 16.95 5.49 17.03L5.49 17.03L5.49 17.03Q4.92 17.12 4.27 17.12L4.27 17.12L0.85 17.12L0.85 16.89L0.85 16.89Q1.05 16.77 1.15 16.67L1.15 16.67L1.15 16.67Q1.26 16.56 1.30 16.43L1.30 16.43L1.30 16.43Q1.35 16.29 1.35 16.20L1.35 16.20L1.35 16.20Q1.36 16.12 1.36 15.91L1.36 15.91L1.36 9.17L1.36 9.17Q1.36 9.07 1.37 8.90L1.37 8.90L1.37 8.90Q1.37 8.74 1.37 8.66L1.37 8.66L1.37 8.66Q1.37 8.59 1.35 8.47L1.35 8.47L1.35 8.47Q1.33 8.34 1.29 8.28L1.29 8.28L1.29 8.28Q1.24 8.22 1.14 8.12L1.14 8.12L1.14 8.12Q1.05 8.03 0.90 7.95L0.90 7.95L0.90 7.95Q0.75 7.88 0.52 7.80L0.52 7.80L0.52 7.80Q0.30 7.72 0 7.63L0 7.63L0 7.33L0.08 7.25L4.40 7.25L4.40 7.25Q8.08 7.25 8.08 9.39L8.08 9.39L8.08 9.39Q8.08 9.90 7.84 10.32L7.84 10.32L7.84 10.32Q7.59 10.74 7.18 11.02L7.18 11.02L7.18 11.02Q6.77 11.31 6.31 11.49L6.31 11.49L6.31 11.49Q5.85 11.68 5.33 11.79ZM3.11 12.23L3.11 15.45L3.11 15.45Q3.11 15.66 3.11 15.73L3.11 15.73L3.11 15.73Q3.11 15.80 3.12 15.96L3.12 15.96L3.12 15.96Q3.13 16.11 3.15 16.17L3.15 16.17L3.15 16.17Q3.17 16.22 3.21 16.31L3.21 16.31L3.21 16.31Q3.25 16.41 3.32 16.44L3.32 16.44L3.32 16.44Q3.38 16.47 3.47 16.50L3.47 16.50L3.47 16.50Q3.56 16.53 3.68 16.53L3.68 16.53L3.68 16.53Q4.87 16.53 5.63 15.89L5.63 15.89L5.63 15.89Q6.38 15.24 6.38 14.16L6.38 14.16L6.38 14.16Q6.38 13.45 5.74 12.83L5.74 12.83L5.74 12.83Q5.48 12.59 4.98 12.45L4.98 12.45L4.98 12.45Q4.48 12.31 4.09 12.28L4.09 12.28L4.09 12.28Q3.71 12.25 3.11 12.23L3.11 12.23ZM3.11 8.63L3.11 11.70L3.11 11.70Q4.61 11.70 5.39 11.13L5.39 11.13L5.39 11.13Q6.17 10.55 6.17 9.50L6.17 9.50L6.17 9.50Q6.17 7.83 3.86 7.83L3.86 7.83L3.86 7.83Q3.60 7.83 3.29 7.91L3.29 7.91L3.29 7.91Q3.17 7.94 3.14 8.08L3.14 8.08L3.14 8.08Q3.11 8.21 3.11 8.52L3.11 8.52L3.11 8.52Q3.11 8.56 3.11 8.58L3.11 8.58L3.11 8.58Q3.11 8.61 3.11 8.63L3.11 8.63ZM9.78 16.95L9.78 16.95L8.02 17.10L7.99 16.97L7.99 16.97Q10.99 12.49 13.17 8.30L13.17 8.30L13.17 8.30Q13.19 8.29 13.19 8.23L13.19 8.23L13.19 8.23Q13.19 8.17 13.15 8.17L13.15 8.17L11.83 8.00L11.83 7.47L14.96 7.47L16.52 12.69L16.52 12.69Q16.65 13.13 16.74 13.42L16.74 13.42L16.74 13.42Q16.83 13.72 16.99 14.18L16.99 14.18L16.99 14.18Q17.16 14.65 17.32 14.96L17.32 14.96L17.32 14.96Q17.47 15.28 17.67 15.59L17.67 15.59L17.67 15.59Q17.86 15.90 18.08 16.06L18.08 16.06L18.08 16.06Q18.31 16.22 18.53 16.22L18.53 16.22L18.53 16.22Q18.81 16.22 19.35 16.11L19.35 16.11L19.45 16.50L19.45 16.50Q18.84 16.78 18.57 16.89L18.57 16.89L18.57 16.89Q18.30 17.00 17.79 17.14L17.79 17.14L17.79 17.14Q17.29 17.29 16.91 17.29L16.91 17.29L16.91 17.29Q16.61 17.29 16.38 17.17L16.38 17.17L16.38 17.17Q16.14 17.04 15.98 16.82L15.98 16.82L15.98 16.82Q15.83 16.60 15.73 16.38L15.73 16.38L15.73 16.38Q15.63 16.17 15.55 15.89L15.55 15.89L14.84 13.34L11.33 13.34L11.33 13.34Q10.86 14.21 9.78 16.95ZM12.01 12.61L14.40 12.61L14.40 12.61Q14.44 12.61 14.49 12.59L14.49 12.59L14.49 12.59Q14.53 12.56 14.53 12.54L14.53 12.54L14.53 12.54Q14.53 12.39 14.52 12.36L14.52 12.36L13.61 9.49L13.61 9.49Q13.58 9.38 13.48 9.38L13.48 9.38L13.48 9.38Q13.43 9.38 13.36 9.49L13.36 9.49L11.89 12.40L11.89 12.40Q11.86 12.44 11.86 12.52L11.86 12.52L11.86 12.52Q11.86 12.55 11.92 12.58L11.92 12.58L11.92 12.58Q11.97 12.61 12.01 12.61L12.01 12.61ZM28.85 8.90L28.85 8.90L27.54 10.10L27.31 10.06L27.31 10.06Q27.18 9.58 26.98 9.19L26.98 9.19L26.98 9.19Q26.78 8.80 26.47 8.47L26.47 8.47L26.47 8.47Q26.17 8.13 25.72 7.95L25.72 7.95L25.72 7.95Q25.27 7.77 24.71 7.77L24.71 7.77L24.71 7.77Q24.13 7.77 23.65 7.96L23.65 7.96L23.65 7.96Q23.17 8.16 22.84 8.49L22.84 8.49L22.84 8.49Q22.50 8.83 22.26 9.26L22.26 9.26L22.26 9.26Q22.01 9.68 21.87 10.17L21.87 10.17L21.87 10.17Q21.73 10.66 21.67 11.13L21.67 11.13L21.67 11.13Q21.60 11.59 21.60 12.05L21.60 12.05L21.60 12.05Q21.60 12.67 21.72 13.27L21.72 13.27L21.72 13.27Q21.85 13.88 22.13 14.46L22.13 14.46L22.13 14.46Q22.42 15.05 22.83 15.50L22.83 15.50L22.83 15.50Q23.24 15.94 23.86 16.21L23.86 16.21L23.86 16.21Q24.49 16.49 25.25 16.49L25.25 16.49L25.25 16.49Q26.64 16.49 28.44 15.61L28.44 15.61L28.74 15.96L28.74 15.96Q26.76 17.34 24.68 17.34L24.68 17.34L24.68 17.34Q23.56 17.34 22.67 17.07L22.67 17.07L22.67 17.07Q21.79 16.80 21.21 16.34L21.21 16.34L21.21 16.34Q20.63 15.88 20.25 15.24L20.25 15.24L20.25 15.24Q19.87 14.61 19.70 13.92L19.70 13.92L19.70 13.92Q19.54 13.23 19.54 12.46L19.54 12.46L19.54 12.46Q19.54 9.98 21.01 8.65L21.01 8.65L21.01 8.65Q21.82 7.92 22.88 7.53L22.88 7.53L22.88 7.53Q23.94 7.14 25.09 7.14L25.09 7.14L25.09 7.14Q26.44 7.14 27.34 7.55L27.34 7.55L27.34 7.55Q28.25 7.96 28.85 8.90Z"></path></g><defs data-v-fde0c5aa=""><linearGradient data-v-fde0c5aa="" gradientTransform="rotate(25)" id="f6bee523-ce01-4254-874e-ee9018b68395" x1="0%" y1="0%" x2="100%" y2="0%"><stop data-v-fde0c5aa="" offset="0%" stop-color="#007DE8" stop-opacity="1"></stop><stop data-v-fde0c5aa="" offset="100%" stop-color="#A1C3DB" stop-opacity="1"></stop></linearGradient></defs><g data-v-fde0c5aa="" id="5f4f4fa2-1079-4293-a240-d900289bce4a" stroke="none" fill="url(#f6bee523-ce01-4254-874e-ee9018b68395)" transform="matrix(1.0910026338279886,0,0,1.0910026338279886,24.398831723341658,95.45014975335275)"><path clip-rule="evenodd" d="M47.661 74.787c-.818 0-1.229-.443-1.229-1.327 0-.492.164-.852.491-1.082.229-.164.476-.246.737-.246 7.176 0 12.303.229 15.382.688 1.506.196 2.309.41 2.407.639-.099.229-.917.458-2.457.688-3.046.426-8.155.64-15.331.64zM43.73 55.961c-.459 0-.868-.066-1.229-.197-.557-.229-.835-.606-.835-1.13 0-.885.688-1.327 2.063-1.327 12.057 0 20.639.229 25.749.688 2.556.196 3.915.41 4.079.639-.164.229-1.541.458-4.128.688-5.142.426-13.708.639-25.699.639zM30.021 73.017c.064-.753.327-1.475.786-2.163a4.575 4.575 0 0 1 1.817-1.72c.623-.164.999-.229 1.131-.197.523.099.802.41.835.934.032.524-.065.934-.295 1.229-.262.262-.41.393-.442.393-.721.393-1.13 1-1.229 1.819-.065.819.132 1.475.59 1.966.393.492.917.787 1.572.885.59.131 1.18.131 1.77 0 .491-.131.868-.36 1.13-.688.098-.098.197-.262.295-.491l.147-.541a2.803 2.803 0 0 0-.394-1.917l-.196-.393-.246-.295c-.032-.066-.164-.213-.393-.442l-.885-.934h.442c.295 0 .605.082.935.246.064.033.277.147.638.344l.394.295.393.393c.721.721 1.098 1.655 1.131 2.802 0 .787-.197 1.491-.59 2.114a3.996 3.996 0 0 1-2.113 1.622c-1.016.328-1.966.409-2.851.246a4.848 4.848 0 0 1-3.144-1.573c-.917-1.083-1.327-2.394-1.228-3.934zm-.05-15.14c-.982-1.081-1.391-2.375-1.228-3.883.196-1.77 1.049-3.063 2.556-3.883.622-.164.999-.229 1.129-.197.492.099.787.41.886.935.032.458-.065.852-.295 1.18-.196.262-.361.409-.491.442-.656.328-1.049.934-1.18 1.819-.098.754.081 1.409.54 1.966.327.426.869.721 1.622.884a4.027 4.027 0 0 0 1.769 0c.459-.131.819-.36 1.081-.688l.345-.492.146-.59c.066-.59-.065-1.229-.393-1.917l-.196-.344-1.572-1.671.491-.05c.393.099.688.197.884.295.263.065.492.18.688.344l.394.294.393.393c.721.787 1.098 1.721 1.131 2.802 0 .786-.214 1.491-.64 2.113-.524.787-1.212 1.327-2.063 1.622-1.016.328-1.981.41-2.899.246-1.311-.194-2.343-.735-3.098-1.62zm12.826-23.642c0-.885.312-1.328.934-1.328 5.504 0 9.419.229 11.744.688 1.18.196 1.802.41 1.868.639-.066.229-.688.458-1.868.688-2.325.426-6.24.64-11.744.64-.623.001-.934-.442-.934-1.327zm-5.651-1.917l.393.393c.721.852 1.098 1.786 1.131 2.802 0 .819-.214 1.524-.64 2.113-.524.787-1.212 1.327-2.063 1.623-.885.36-1.852.458-2.899.294-1.245-.164-2.276-.705-3.097-1.622-.982-1.082-1.391-2.376-1.228-3.883a4.94 4.94 0 0 1 .736-2.212c.459-.754 1.065-1.311 1.819-1.671.459-.229.835-.295 1.129-.197.492.065.787.377.886.935.032.393-.065.786-.295 1.179-.262.262-.427.393-.491.393-.688.394-1.082 1.016-1.18 1.868-.098.721.081 1.36.54 1.917.394.491.935.787 1.622.884.459.132 1.048.132 1.769 0 .394-.065.754-.294 1.081-.688l.345-.492c.098-.229.146-.41.146-.541.066-.589-.065-1.229-.393-1.917l-.196-.344-1.572-1.721h.491c.262 0 .557.083.884.246l.688.344.394.297zM62.993 8.774c.065.327.065.671 0 1.032a57.296 57.296 0 0 0-.491 6.095 58.752 58.752 0 0 0 .146 5.456c.066.852.165 1.622.296 2.311l.196.934c.032.229.099.426.196.59 0 .164.181.295.54.393.361.131.82.197 1.377.197.885 0 1.949-.147 3.193-.442.557-.098 1.491-.344 2.801-.737l4.276-1.475a71.476 71.476 0 0 1 2.702-.934 10.742 10.742 0 0 0-.59-1.819c-.426-.918-1.211-2.081-2.358-3.49a20.44 20.44 0 0 0-3.047-2.852c-2.129-1.736-4.341-3.129-6.634-4.178a31.294 31.294 0 0 0-2.603-1.081zM52.674 5.038c2.031-.099 4.308-.017 6.831.246 2.26.229 4.767.934 7.518 2.114a37.957 37.957 0 0 1 7.371 4.423c2.916 2.393 5.029 4.883 6.339 7.472.459 1.082.737 1.982.835 2.703l.197 1.328.245 6.586c0 .655-.032 2.458-.098 5.407-.066 2.228-.066 4.063 0 5.504v1.377l2.26 23.348c.131 1.409.459 3.653.983 6.733.394 3.211.573 5.702.54 7.472a20.55 20.55 0 0 1-.393 4.129c-.131.623-.36 1.343-.688 2.163l-.591 1.081-.884 1.131c-1.18 1.081-2.621 1.835-4.324 2.261-1.113.294-2.522.541-4.227.737-.523.033-3.242.098-8.156.196-.394 0-1.736.082-4.03.246l-12.727 1.131c-3.898.426-6.83.77-8.796 1.032-4.39.59-7.502.934-9.337 1.032-2.064.131-3.751.147-5.062.049-1.899-.099-3.686-.443-5.356-1.033l-1.474-.639a2.805 2.805 0 0 1-.737-.541l-.688-.59c-.655-.655-1.261-1.54-1.818-2.654-.688-1.409-1.212-3.211-1.572-5.407-.459-2.949-.623-6.504-.491-10.666.065-2.785.311-6.341.737-10.666l.736-8.062c.065-.59.099-1.475.099-2.654l.049-5.505c0-3.08-.017-4.948-.049-5.604l-.492-11.501c-.098-2.163-.146-3.72-.146-4.67l.098-5.997c.295-4.949.885-7.422 1.77-7.422s1.605 2.425 2.162 7.275l1.326 22.217c.032.656.05 2.573.05 5.751l-.05 5.653c.032.36 0 1.327-.098 2.9l-.786 8.159c-.427 4.26-.672 7.717-.737 10.372-.099 3.965.049 7.225.442 9.781.295 1.803.688 3.179 1.179 4.129.197.492.509.95.934 1.376.327.295.754.524 1.277.688 2.098.688 4.964.917 8.6.688 1.409-.099 4.423-.442 9.042-1.032l21.867-2.016c1.9-.131 3.325-.196 4.275-.196 4.029 0 6.65-.049 7.862-.147 1.277-.098 2.425-.295 3.439-.59 1.081-.295 1.851-.705 2.31-1.229l.295-.394.294-.59.443-1.425c.196-1.016.294-2.114.294-3.293 0-1.54-.163-3.817-.491-6.832l-.491-3.441a34.75 34.75 0 0 1-.393-3.49l-1.966-25.068c0-1.475.049-3.391.146-5.75.132-2.589.197-4.358.197-5.309.066-.852.066-1.687 0-2.506l-.049-2.458c0-.229-.017-.458-.049-.688-.558.458-1.196.934-1.917 1.425a42.913 42.913 0 0 1-4.128 2.311c-1.016.524-2.015.95-2.997 1.278-1.344.459-2.67.753-3.98.885-1.146.065-2.064 0-2.751-.197-1.279-.328-2.277-1.016-2.999-2.064l-.736-1.573-.393-1.376a29.34 29.34 0 0 1-.442-2.752 57.704 57.704 0 0 1-.295-5.948c0-2.458.164-4.718.491-6.783.065-.459.229-.885.491-1.278-1.965-.263-4.095-.394-6.388-.394-5.209.164-8.895.279-11.057.344-4.063.032-6.912.082-8.55.147-2.621.066-6.127.279-10.517.64l-5.159.541 5.159-1.327c3.898-.655 7.452-1.098 10.664-1.328l8.5-.639c6.065-.459 9.8-.704 11.208-.737z"></path></g><defs data-v-fde0c5aa=""><!----></defs><g data-v-fde0c5aa="" id="db7e9e4c-e065-4271-ba1b-9393a519d9de" fill="#000000" transform="matrix(0.5328249377211729,0,0,0.5328249377211729,130.0919503132296,171.090773341524)"><path d="M7.20 9.21L7.20 9.21L7.20 9.21Q7.66 9.21 7.92 9.46L7.92 9.46L7.92 9.46Q8.18 9.72 8.18 10.16L8.18 10.16L8.18 10.16Q8.18 10.28 8.15 10.39L8.15 10.39L8.15 10.39Q8.13 10.51 8.11 10.60L8.11 10.60L8.11 10.60Q7.92 10.57 7.70 10.55L7.70 10.55L7.70 10.55Q7.48 10.53 7.17 10.53L7.17 10.53L7.17 10.53Q6.57 10.53 5.95 10.63L5.95 10.63L5.95 10.63Q5.33 10.74 4.77 10.81L4.77 10.81L4.77 10.81Q4.45 11.55 4.19 12.24L4.19 12.24L4.19 12.24Q3.92 12.94 3.73 13.51L3.73 13.51L3.73 13.51Q3.54 14.08 3.44 14.50L3.44 14.50L3.44 14.50Q3.33 14.92 3.32 15.13L3.32 15.13L3.32 15.13Q4.45 14.90 5.61 14.73L5.61 14.73L5.61 14.73Q6.76 14.56 8.04 14.48L8.04 14.48L8.04 14.48Q8.19 14.71 8.29 14.99L8.29 14.99L8.29 14.99Q8.40 15.27 8.40 15.60L8.40 15.60L8.40 15.60Q8.40 15.68 8.40 15.78L8.40 15.78L8.40 15.78Q8.40 15.88 8.37 15.97L8.37 15.97L8.37 15.97Q7.98 15.96 7.55 15.95L7.55 15.95L7.55 15.95Q7.11 15.95 6.41 15.95L6.41 15.95L6.41 15.95Q5.95 15.95 5.54 15.97L5.54 15.97L5.54 15.97Q5.12 15.99 4.70 16.03L4.70 16.03L4.70 16.03Q4.28 16.07 3.81 16.14L3.81 16.14L3.81 16.14Q3.35 16.21 2.76 16.31L2.76 16.31L2.76 16.31Q2.11 16.06 1.51 15.08L1.51 15.08L1.51 15.08Q1.75 14.57 2.18 13.54L2.18 13.54L2.18 13.54Q2.60 12.52 3.26 10.79L3.26 10.79L3.26 10.79Q2.63 10.60 2.44 10.09L2.44 10.09L2.44 10.09Q2.51 10.02 2.84 9.92L2.84 9.92L2.84 9.92Q3.18 9.81 3.67 9.70L3.67 9.70L3.67 9.70Q3.88 9.16 4.03 8.75L4.03 8.75L4.03 8.75Q4.17 8.34 4.28 7.99L4.28 7.99L4.28 7.99Q4.40 7.63 4.49 7.29L4.49 7.29L4.49 7.29Q4.58 6.94 4.66 6.54L4.66 6.54L4.66 6.54Q4.17 6.51 3.89 6.27L3.89 6.27L3.89 6.27Q3.61 6.02 3.61 5.63L3.61 5.63L3.61 5.63Q3.61 5.52 3.65 5.36L3.65 5.36L3.65 5.36Q3.68 5.21 3.72 5.10L3.72 5.10L3.72 5.10Q4.00 5.14 4.26 5.15L4.26 5.15L4.26 5.15Q4.52 5.17 4.94 5.17L4.94 5.17L4.94 5.17Q5.82 5.17 6.59 5.12L6.59 5.12L6.59 5.12Q7.36 5.07 7.99 5.01L7.99 5.01L7.99 5.01Q8.61 4.96 9.06 4.91L9.06 4.91L9.06 4.91Q9.51 4.86 9.74 4.86L9.74 4.86L9.74 4.86Q10.07 4.86 10.32 5.19L10.32 5.19L10.32 5.19Q10.57 5.53 10.70 6.15L10.70 6.15L10.70 6.15Q10.26 6.10 9.99 6.09L9.99 6.09L9.99 6.09Q9.72 6.08 9.51 6.08L9.51 6.08L9.51 6.08Q8.74 6.08 8.10 6.15L8.10 6.15L8.10 6.15Q7.46 6.23 6.87 6.31L6.87 6.31L6.87 6.31Q6.79 6.44 6.69 6.64L6.69 6.64L6.69 6.64Q6.58 6.83 6.41 7.18L6.41 7.18L6.41 7.18Q6.24 7.53 6.00 8.06L6.00 8.06L6.00 8.06Q5.75 8.60 5.40 9.39L5.40 9.39L5.40 9.39Q5.94 9.31 6.41 9.26L6.41 9.26L6.41 9.26Q6.87 9.21 7.20 9.21ZM24.58 15.23L24.58 15.23L24.58 15.23Q24.46 15.36 24.21 15.52L24.21 15.52L24.21 15.52Q23.97 15.68 23.69 15.81L23.69 15.81L23.69 15.81Q23.41 15.95 23.12 16.05L23.12 16.05L23.12 16.05Q22.83 16.16 22.65 16.17L22.65 16.17L22.65 16.17Q22.47 16.17 22.33 16.03L22.33 16.03L22.33 16.03Q22.19 15.89 22.04 15.39L22.04 15.39L22.04 15.39Q21.88 14.90 21.68 13.95L21.68 13.95L21.68 13.95Q21.48 13.01 21.17 11.38L21.17 11.38L21.17 11.38Q20.37 12.21 19.68 12.98L19.68 12.98L19.68 12.98Q19.00 13.75 18.51 14.41L18.51 14.41L18.51 14.41Q18.02 15.06 17.74 15.55L17.74 15.55L17.74 15.55Q17.46 16.04 17.46 16.30L17.46 16.30L17.46 16.30Q17.29 16.28 17.11 16.17L17.11 16.17L17.11 16.17Q16.94 16.06 16.80 15.90L16.80 15.90L16.80 15.90Q16.66 15.75 16.57 15.57L16.57 15.57L16.57 15.57Q16.48 15.39 16.48 15.22L16.48 15.22L16.48 15.22Q16.52 15.06 16.69 14.78L16.69 14.78L16.69 14.78Q16.86 14.50 17.11 14.18L17.11 14.18L17.11 14.18Q17.64 13.50 18.63 12.59L18.63 12.59L18.63 12.59Q19.61 11.69 21.01 10.60L21.01 10.60L21.01 10.60Q20.10 6.08 18.44 6.08L18.44 6.08L18.44 6.08Q18.61 5.67 18.98 5.36L18.98 5.36L18.98 5.36Q19.35 5.05 19.77 4.98L19.77 4.98L19.77 4.98Q20.23 4.98 20.52 5.10L20.52 5.10L20.52 5.10Q20.82 5.22 21.06 5.70L21.06 5.70L21.06 5.70Q21.29 6.17 21.53 7.13L21.53 7.13L21.53 7.13Q21.77 8.09 22.13 9.76L22.13 9.76L22.13 9.76Q22.60 9.27 23.02 8.76L23.02 8.76L23.02 8.76Q23.45 8.25 23.81 7.77L23.81 7.77L23.81 7.77Q24.18 7.29 24.46 6.89L24.46 6.89L24.46 6.89Q24.74 6.48 24.89 6.19L24.89 6.19L24.89 6.19Q25.05 5.92 25.05 5.64L25.05 5.64L25.05 5.64Q25.05 5.39 24.89 4.98L24.89 4.98L24.89 4.98Q25.34 5.25 25.57 5.48L25.57 5.48L25.57 5.48Q25.80 5.71 25.97 6.12L25.97 6.12L25.97 6.12Q25.94 6.45 25.78 6.79L25.78 6.79L25.78 6.79Q25.62 7.13 25.22 7.59L25.22 7.59L25.22 7.59Q24.82 8.06 24.12 8.75L24.12 8.75L24.12 8.75Q23.42 9.44 22.29 10.46L22.29 10.46L22.29 10.46Q22.55 11.72 22.81 12.59L22.81 12.59L22.81 12.59Q23.06 13.45 23.32 14.01L23.32 14.01L23.32 14.01Q23.59 14.56 23.90 14.85L23.90 14.85L23.90 14.85Q24.21 15.13 24.58 15.23ZM33.49 16.24L33.49 16.24L33.49 16.24Q32.82 16.04 32.56 15.85L32.56 15.85L32.56 15.85Q32.30 15.65 32.30 15.36L32.30 15.36L32.30 15.36Q32.30 15.13 32.42 14.73L32.42 14.73L32.42 14.73Q32.55 14.32 32.80 13.77L32.80 13.77L32.80 13.77Q33.04 13.22 33.38 12.54L33.38 12.54L33.38 12.54Q33.73 11.87 34.16 11.10L34.16 11.10L34.16 11.10Q33.80 11.09 33.51 11.08L33.51 11.08L33.51 11.08Q33.22 11.07 33.04 11.07L33.04 11.07L33.04 11.07Q33.12 10.86 33.52 10.71L33.52 10.71L33.52 10.71Q33.91 10.56 34.55 10.44L34.55 10.44L34.55 10.44Q35.10 9.53 35.72 8.71L35.72 8.71L35.72 8.71Q36.34 7.88 36.97 7.19L36.97 7.19L36.97 7.19Q37.60 6.50 38.23 5.97L38.23 5.97L38.23 5.97Q38.86 5.45 39.44 5.14L39.44 5.14L39.44 5.14Q39.45 5.04 39.46 4.97L39.46 4.97L39.46 4.97Q39.47 4.90 39.47 4.87L39.47 4.87L39.47 4.87Q39.66 4.87 39.99 4.97L39.99 4.97L39.99 4.97Q40.32 5.07 40.64 5.21L40.64 5.21L40.64 5.21Q40.95 5.35 41.20 5.49L41.20 5.49L41.20 5.49Q41.44 5.64 41.47 5.74L41.47 5.74L41.47 5.74Q41.01 6.55 40.56 8.17L40.56 8.17L40.56 8.17Q40.11 9.79 39.82 12.04L39.82 12.04L39.82 12.04Q39.75 12.60 39.70 13.31L39.70 13.31L39.70 13.31Q39.65 14.03 39.65 14.91L39.65 14.91L39.65 14.91Q39.65 15.22 39.65 15.54L39.65 15.54L39.65 15.54Q39.65 15.86 39.68 16.21L39.68 16.21L39.68 16.21Q39.65 16.23 39.62 16.23L39.62 16.23L39.62 16.23Q39.59 16.23 39.51 16.23L39.51 16.23L39.51 16.23Q39.31 16.23 39.05 16.16L39.05 16.16L39.05 16.16Q38.79 16.10 38.55 16.01L38.55 16.01L38.55 16.01Q38.30 15.92 38.13 15.81L38.13 15.81L38.13 15.81Q37.95 15.69 37.91 15.61L37.91 15.61L37.91 15.61Q37.90 15.43 37.90 15.25L37.90 15.25L37.90 15.25Q37.90 15.08 37.90 14.88L37.90 14.88L37.90 14.88Q37.90 14.01 37.96 13.12L37.96 13.12L37.96 13.12Q38.02 12.22 38.18 11.27L38.18 11.27L38.18 11.27Q37.98 11.26 37.66 11.23L37.66 11.23L37.66 11.23Q37.34 11.21 36.94 11.20L36.94 11.20L36.94 11.20Q36.54 11.19 36.09 11.16L36.09 11.16L36.09 11.16Q35.63 11.14 35.20 11.13L35.20 11.13L35.20 11.13Q34.86 11.76 34.57 12.38L34.57 12.38L34.57 12.38Q34.27 13.01 34.06 13.64L34.06 13.64L34.06 13.64Q33.82 14.31 33.68 14.98L33.68 14.98L33.68 14.98Q33.53 15.65 33.49 16.24ZM38.89 7.83L38.89 7.83L38.89 7.83Q38.95 7.63 39.03 7.29L39.03 7.29L39.03 7.29Q39.10 6.94 39.17 6.57L39.17 6.57L39.17 6.57Q38.82 6.69 38.40 7.03L38.40 7.03L38.40 7.03Q37.97 7.36 37.51 7.86L37.51 7.86L37.51 7.86Q37.06 8.36 36.59 8.98L36.59 8.98L36.59 8.98Q36.12 9.60 35.69 10.30L35.69 10.30L35.69 10.30Q36.86 10.21 38.36 10.18L38.36 10.18L38.36 10.18Q38.47 9.59 38.61 9.01L38.61 9.01L38.61 9.01Q38.74 8.43 38.89 7.83ZM54.63 16.21L54.63 16.21L54.63 16.21Q54.60 16.23 54.57 16.23L54.57 16.23L54.57 16.23Q54.54 16.23 54.46 16.23L54.46 16.23L54.46 16.23Q54.26 16.23 54.01 16.16L54.01 16.16L54.01 16.16Q53.75 16.10 53.50 16.01L53.50 16.01L53.50 16.01Q53.26 15.92 53.08 15.81L53.08 15.81L53.08 15.81Q52.91 15.69 52.86 15.61L52.86 15.61L52.86 15.61Q52.85 15.41 52.85 15.20L52.85 15.20L52.85 15.20Q52.85 14.99 52.85 14.80L52.85 14.80L52.85 14.80Q52.85 13.23 53.08 11.52L53.08 11.52L53.08 11.52Q53.31 9.81 53.84 7.83L53.84 7.83L53.84 7.83Q53.90 7.63 53.96 7.33L53.96 7.33L53.96 7.33Q54.03 7.03 54.10 6.68L54.10 6.68L54.10 6.68Q53.76 6.94 53.30 7.53L53.30 7.53L53.30 7.53Q52.84 8.11 52.33 8.90L52.33 8.90L52.33 8.90Q51.81 9.69 51.30 10.63L51.30 10.63L51.30 10.63Q50.79 11.58 50.37 12.55L50.37 12.55L50.37 12.55Q49.95 13.52 49.65 14.48L49.65 14.48L49.65 14.48Q49.35 15.43 49.28 16.24L49.28 16.24L49.28 16.24Q48.61 16.04 48.35 15.85L48.35 15.85L48.35 15.85Q48.09 15.65 48.09 15.37L48.09 15.37L48.09 15.37Q48.09 15.12 48.24 14.66L48.24 14.66L48.24 14.66Q48.40 14.20 48.68 13.57L48.68 13.57L48.68 13.57Q48.96 12.94 49.36 12.16L49.36 12.16L49.36 12.16Q49.77 11.38 50.26 10.49L50.26 10.49L50.26 10.49Q50.82 9.46 51.36 8.57L51.36 8.57L51.36 8.57Q51.90 7.67 52.42 6.94L52.42 6.94L52.42 6.94Q52.93 6.22 53.43 5.68L53.43 5.68L53.43 5.68Q53.93 5.15 54.42 4.87L54.42 4.87L54.42 4.87Q54.61 4.87 54.94 4.97L54.94 4.97L54.94 4.97Q55.27 5.07 55.59 5.21L55.59 5.21L55.59 5.21Q55.90 5.35 56.15 5.49L56.15 5.49L56.15 5.49Q56.39 5.64 56.42 5.74L56.42 5.74L56.42 5.74Q56.22 6.13 55.96 6.92L55.96 6.92L55.96 6.92Q55.69 7.70 55.42 8.69L55.42 8.69L55.42 8.69Q55.15 9.69 54.90 10.80L54.90 10.80L54.90 10.80Q54.66 11.91 54.52 12.94L54.52 12.94L54.52 12.94Q54.84 12.17 55.27 11.33L55.27 11.33L55.27 11.33Q55.69 10.50 56.17 9.68L56.17 9.68L56.17 9.68Q56.64 8.86 57.14 8.09L57.14 8.09L57.14 8.09Q57.64 7.32 58.11 6.69L58.11 6.69L58.11 6.69Q58.59 6.05 59.00 5.57L59.00 5.57L59.00 5.57Q59.42 5.10 59.74 4.87L59.74 4.87L59.74 4.87Q59.93 4.87 60.26 4.97L60.26 4.97L60.26 4.97Q60.59 5.07 60.91 5.21L60.91 5.21L60.91 5.21Q61.22 5.35 61.47 5.49L61.47 5.49L61.47 5.49Q61.71 5.64 61.74 5.74L61.74 5.74L61.74 5.74Q61.29 6.54 60.96 7.69L60.96 7.69L60.96 7.69Q60.62 8.83 60.39 10.09L60.39 10.09L60.39 10.09Q60.16 11.35 60.04 12.59L60.04 12.59L60.04 12.59Q59.92 13.83 59.92 14.81L59.92 14.81L59.92 14.81Q59.92 15.13 59.92 15.48L59.92 15.48L59.92 15.48Q59.92 15.83 59.95 16.21L59.95 16.21L59.95 16.21Q59.75 16.21 59.48 16.16L59.48 16.16L59.48 16.16Q59.21 16.11 58.95 16.03L58.95 16.03L58.95 16.03Q58.69 15.95 58.48 15.84L58.48 15.84L58.48 15.84Q58.27 15.74 58.18 15.61L58.18 15.61L58.18 15.61Q58.17 15.41 58.17 15.20L58.17 15.20L58.17 15.20Q58.17 14.99 58.17 14.80L58.17 14.80L58.17 14.80Q58.17 13.23 58.40 11.52L58.40 11.52L58.40 11.52Q58.63 9.81 59.16 7.83L59.16 7.83L59.16 7.83Q59.22 7.63 59.29 7.29L59.29 7.29L59.29 7.29Q59.36 6.96 59.43 6.59L59.43 6.59L59.43 6.59Q59.04 6.79 58.54 7.34L58.54 7.34L58.54 7.34Q58.04 7.90 57.53 8.69L57.53 8.69L57.53 8.69Q57.02 9.48 56.53 10.44L56.53 10.44L56.53 10.44Q56.03 11.41 55.63 12.41L55.63 12.41L55.63 12.41Q55.23 13.41 54.96 14.40L54.96 14.40L54.96 14.40Q54.68 15.39 54.63 16.21ZM78.05 5.74L78.05 5.74L78.05 5.74Q78.09 5.98 78.11 6.07L78.11 6.07L78.11 6.07Q78.13 6.16 78.13 6.31L78.13 6.31L78.13 6.31Q78.13 6.78 77.93 7.18L77.93 7.18L77.93 7.18Q77.73 7.57 77.38 7.74L77.38 7.74L77.38 7.74Q77.10 7.36 76.69 7.09L76.69 7.09L76.69 7.09Q76.29 6.82 75.80 6.64L75.80 6.64L75.80 6.64Q75.32 6.47 74.80 6.38L74.80 6.38L74.80 6.38Q74.28 6.30 73.79 6.30L73.79 6.30L73.79 6.30Q73.30 6.30 72.88 6.38L72.88 6.38L72.88 6.38Q72.45 6.45 72.12 6.59L72.12 6.59L72.12 6.59Q71.79 6.72 71.60 6.92L71.60 6.92L71.60 6.92Q71.41 7.11 71.41 7.36L71.41 7.36L71.41 7.36Q71.46 7.67 71.79 7.99L71.79 7.99L71.79 7.99Q72.13 8.30 72.62 8.60L72.62 8.60L72.62 8.60Q73.11 8.90 73.70 9.20L73.70 9.20L73.70 9.20Q74.30 9.49 74.87 9.76L74.87 9.76L74.87 9.76Q75.59 10.09 76.10 10.38L76.10 10.38L76.10 10.38Q76.62 10.67 76.96 11.01L76.96 11.01L76.96 11.01Q77.29 11.35 77.46 11.79L77.46 11.79L77.46 11.79Q77.63 12.22 77.63 12.84L77.63 12.84L77.63 12.84Q77.63 13.55 77.39 14.18L77.39 14.18L77.39 14.18Q77.15 14.80 76.70 15.26L76.70 15.26L76.70 15.26Q76.24 15.72 75.60 15.98L75.60 15.98L75.60 15.98Q74.96 16.24 74.16 16.24L74.16 16.24L74.16 16.24Q73.37 16.24 72.46 16.00L72.46 16.00L72.46 16.00Q71.55 15.76 70.76 15.35L70.76 15.35L70.76 15.35Q69.97 14.94 69.45 14.40L69.45 14.40L69.45 14.40Q68.92 13.86 68.92 13.26L68.92 13.26L68.92 13.26Q68.92 12.98 69.08 12.54L69.08 12.54L69.08 12.54Q69.24 12.11 69.66 11.63L69.66 11.63L69.66 11.63Q69.71 12.05 70.12 12.63L70.12 12.63L70.12 12.63Q70.53 13.20 71.36 13.69L71.36 13.69L71.36 13.69Q72.13 14.14 72.95 14.34L72.95 14.34L72.95 14.34Q73.77 14.55 74.48 14.55L74.48 14.55L74.48 14.55Q75.26 14.55 75.75 14.35L75.75 14.35L75.75 14.35Q76.24 14.15 76.52 13.88L76.52 13.88L76.52 13.88Q76.80 13.61 76.92 13.33L76.92 13.33L76.92 13.33Q77.03 13.05 77.04 12.88L77.04 12.88L77.04 12.88Q77.03 12.60 76.78 12.34L76.78 12.34L76.78 12.34Q76.54 12.08 76.13 11.84L76.13 11.84L76.13 11.84Q75.71 11.59 75.17 11.34L75.17 11.34L75.17 11.34Q74.62 11.09 74.03 10.84L74.03 10.84L74.03 10.84Q73.15 10.44 72.51 10.10L72.51 10.10L72.51 10.10Q71.88 9.76 71.46 9.40L71.46 9.40L71.46 9.40Q71.05 9.04 70.86 8.65L70.86 8.65L70.86 8.65Q70.67 8.26 70.67 7.76L70.67 7.76L70.67 7.76Q70.67 6.97 71.15 6.27L71.15 6.27L71.15 6.27Q71.62 5.57 72.52 5.21L72.52 5.21L72.52 5.21Q72.97 5.01 73.48 4.93L73.48 4.93L73.48 4.93Q73.99 4.84 74.48 4.84L74.48 4.84L74.48 4.84Q75.40 4.84 76.29 5.10L76.29 5.10L76.29 5.10Q77.17 5.35 78.05 5.74ZM98.20 17.01L98.03 17.19L98.03 17.19Q97.71 16.81 97.45 16.37L97.45 16.37L97.45 16.37Q97.19 15.93 97.00 15.39L97.00 15.39L97.00 15.39Q96.81 14.85 96.71 14.19L96.71 14.19L96.71 14.19Q96.61 13.52 96.61 12.70L96.61 12.70L96.61 12.70Q96.61 10.99 97.03 9.47L97.03 9.47L97.03 9.47Q97.45 7.95 98.14 6.73L98.14 6.73L98.14 6.73Q98.83 5.50 99.70 4.61L99.70 4.61L99.70 4.61Q100.58 3.71 101.47 3.25L101.47 3.25L101.47 3.25Q101.67 3.33 101.89 3.54L101.89 3.54L101.89 3.54Q102.10 3.75 102.29 3.99L102.29 3.99L102.29 3.99Q102.48 4.23 102.61 4.44L102.61 4.44L102.61 4.44Q102.73 4.65 102.75 4.73L102.75 4.73L102.75 4.73Q101.64 4.93 100.71 5.74L100.71 5.74L100.71 5.74Q99.78 6.55 99.10 7.71L99.10 7.71L99.10 7.71Q98.42 8.88 98.04 10.23L98.04 10.23L98.04 10.23Q97.65 11.59 97.65 12.88L97.65 12.88L97.65 12.88Q97.65 13.44 97.69 14.04L97.69 14.04L97.69 14.04Q97.72 14.63 97.79 15.19L97.79 15.19L97.79 15.19Q97.86 15.75 97.97 16.23L97.97 16.23L97.97 16.23Q98.07 16.70 98.20 17.01L98.20 17.01ZM115.16 7.36L115.16 7.36L115.16 7.36Q115.16 8.04 114.86 8.67L114.86 8.67L114.86 8.67Q114.56 9.30 114.03 9.93L114.03 9.93L114.03 9.93Q113.50 10.56 112.76 11.22L112.76 11.22L112.76 11.22Q112.03 11.89 111.17 12.63L111.17 12.63L111.17 12.63Q110.78 12.96 110.51 13.23L110.51 13.23L110.51 13.23Q110.24 13.50 110.04 13.74L110.04 13.74L110.04 13.74Q109.84 13.99 109.70 14.22L109.70 14.22L109.70 14.22Q109.55 14.45 109.42 14.71L109.42 14.71L109.42 14.71Q110.54 14.64 111.66 14.21L111.66 14.21L111.66 14.21Q112.77 13.78 113.57 13.08L113.57 13.08L113.57 13.08Q113.62 13.15 113.71 13.29L113.71 13.29L113.71 13.29Q113.79 13.44 113.86 13.63L113.86 13.63L113.86 13.63Q113.92 13.82 113.97 14.04L113.97 14.04L113.97 14.04Q114.02 14.25 114.02 14.46L114.02 14.46L114.02 14.46Q114.02 14.81 113.86 15.06L113.86 15.06L113.86 15.06Q113.72 15.22 113.46 15.30L113.46 15.30L113.46 15.30Q113.20 15.39 112.85 15.43L112.85 15.43L112.85 15.43Q112.50 15.47 112.10 15.48L112.10 15.48L112.10 15.48Q111.69 15.50 111.26 15.50L111.26 15.50L111.26 15.50Q110.84 15.50 110.42 15.52L110.42 15.52L110.42 15.52Q110.00 15.54 109.61 15.59L109.61 15.59L109.61 15.59Q109.23 15.64 108.90 15.74L108.90 15.74L108.90 15.74Q108.57 15.83 108.35 16.00L108.35 16.00L108.35 16.00Q108.01 15.85 107.74 15.55L107.74 15.55L107.74 15.55Q107.46 15.25 107.35 14.90L107.35 14.90L107.35 14.90Q107.44 14.49 107.65 14.14L107.65 14.14L107.65 14.14Q107.86 13.79 108.21 13.41L108.21 13.41L108.21 13.41Q108.57 13.03 109.10 12.59L109.10 12.59L109.10 12.59Q109.63 12.15 110.36 11.55L110.36 11.55L110.36 11.55Q111.17 10.88 111.83 10.29L111.83 10.29L111.83 10.29Q112.49 9.70 112.94 9.16L112.94 9.16L112.94 9.16Q113.40 8.62 113.64 8.10L113.64 8.10L113.64 8.10Q113.89 7.57 113.89 7.03L113.89 7.03L113.89 7.03Q113.89 6.34 113.54 5.95L113.54 5.95L113.54 5.95Q113.19 5.56 112.62 5.56L112.62 5.56L112.62 5.56Q112.21 5.56 111.83 5.75L111.83 5.75L111.83 5.75Q111.45 5.94 111.16 6.27L111.16 6.27L111.16 6.27Q110.87 6.59 110.68 7.02L110.68 7.02L110.68 7.02Q110.50 7.45 110.50 7.92L110.50 7.92L110.50 7.92Q110.50 8.27 110.61 8.55L110.61 8.55L110.61 8.55Q110.71 8.82 110.94 9.10L110.94 9.10L110.94 9.10Q110.74 9.14 110.57 9.14L110.57 9.14L110.57 9.14Q110.24 9.14 109.96 9.03L109.96 9.03L109.96 9.03Q109.68 8.92 109.47 8.72L109.47 8.72L109.47 8.72Q109.27 8.53 109.16 8.26L109.16 8.26L109.16 8.26Q109.05 7.99 109.05 7.67L109.05 7.67L109.05 7.67Q109.05 7.14 109.35 6.66L109.35 6.66L109.35 6.66Q109.66 6.17 110.17 5.81L110.17 5.81L110.17 5.81Q110.67 5.45 111.31 5.23L111.31 5.23L111.31 5.23Q111.94 5.01 112.60 5.01L112.60 5.01L112.60 5.01Q113.18 5.01 113.65 5.18L113.65 5.18L113.65 5.18Q114.13 5.35 114.46 5.66L114.46 5.66L114.46 5.66Q114.80 5.98 114.98 6.41L114.98 6.41L114.98 6.41Q115.16 6.85 115.16 7.36ZM125.20 15.68L125.20 15.68L125.20 15.68Q124.70 15.58 124.27 15.38L124.27 15.38L124.27 15.38Q123.84 15.18 123.54 14.82L123.54 14.82L123.54 14.82Q123.24 14.46 123.07 13.94L123.07 13.94L123.07 13.94Q122.89 13.41 122.89 12.66L122.89 12.66L122.89 12.66Q122.89 11.80 123.13 10.89L123.13 10.89L123.13 10.89Q123.37 9.98 123.80 9.12L123.80 9.12L123.80 9.12Q124.22 8.26 124.80 7.48L124.80 7.48L124.80 7.48Q125.38 6.71 126.07 6.13L126.07 6.13L126.07 6.13Q126.76 5.54 127.52 5.20L127.52 5.20L127.52 5.20Q128.28 4.86 129.07 4.86L129.07 4.86L129.07 4.86Q129.65 4.86 130.08 5.07L130.08 5.07L130.08 5.07Q130.51 5.29 130.80 5.68L130.80 5.68L130.80 5.68Q131.08 6.06 131.22 6.60L131.22 6.60L131.22 6.60Q131.36 7.14 131.36 7.77L131.36 7.77L131.36 7.77Q131.36 8.60 131.16 9.51L131.16 9.51L131.16 9.51Q130.96 10.42 130.58 11.28L130.58 11.28L130.58 11.28Q130.20 12.15 129.66 12.94L129.66 12.94L129.66 12.94Q129.12 13.73 128.44 14.34L128.44 14.34L128.44 14.34Q127.75 14.94 126.94 15.30L126.94 15.30L126.94 15.30Q126.13 15.67 125.20 15.68ZM124.64 13.23L124.64 13.23L124.64 13.23Q124.64 14.18 124.98 14.57L124.98 14.57L124.98 14.57Q125.31 14.97 125.96 15.08L125.96 15.08L125.96 15.08Q126.59 15.05 127.16 14.60L127.16 14.60L127.16 14.60Q127.72 14.15 128.20 13.46L128.20 13.46L128.20 13.46Q128.67 12.77 129.06 11.92L129.06 11.92L129.06 11.92Q129.44 11.07 129.71 10.23L129.71 10.23L129.71 10.23Q129.98 9.39 130.12 8.64L130.12 8.64L130.12 8.64Q130.26 7.90 130.26 7.41L130.26 7.41L130.26 7.41Q130.26 6.64 130.08 6.15L130.08 6.15L130.08 6.15Q129.91 5.67 129.50 5.57L129.50 5.57L129.50 5.57Q128.86 5.66 128.25 6.08L128.25 6.08L128.25 6.08Q127.64 6.51 127.10 7.15L127.10 7.15L127.10 7.15Q126.56 7.80 126.11 8.60L126.11 8.60L126.11 8.60Q125.66 9.41 125.34 10.23L125.34 10.23L125.34 10.23Q125.01 11.06 124.82 11.84L124.82 11.84L124.82 11.84Q124.64 12.63 124.64 13.23ZM142.31 14.17L142.31 14.17L142.31 14.17Q142.77 14.17 143.03 14.40L143.03 14.40L143.03 14.40Q143.29 14.63 143.29 15.04L143.29 15.04L143.29 15.04Q143.29 15.15 143.27 15.27L143.27 15.27L143.27 15.27Q143.25 15.39 143.22 15.47L143.22 15.47L143.22 15.47Q143.04 15.44 142.81 15.42L142.81 15.42L142.81 15.42Q142.59 15.40 142.28 15.40L142.28 15.40L142.28 15.40Q141.86 15.40 141.42 15.46L141.42 15.46L141.42 15.46Q140.98 15.51 140.56 15.57L140.56 15.57L140.56 15.57Q140.14 15.64 139.75 15.69L139.75 15.69L139.75 15.69Q139.36 15.75 139.02 15.75L139.02 15.75L139.02 15.75Q138.47 15.75 138.08 15.54L138.08 15.54L138.08 15.54Q137.69 15.33 137.55 14.97L137.55 14.97L137.55 14.97Q137.61 14.91 137.82 14.85L137.82 14.85L137.82 14.85Q138.04 14.78 138.36 14.71L138.36 14.71L138.36 14.71Q138.67 14.63 139.07 14.56L139.07 14.56L139.07 14.56Q139.47 14.49 139.89 14.42L139.89 14.42L139.89 14.42Q140.08 13.58 140.33 12.69L140.33 12.69L140.33 12.69Q140.57 11.80 140.83 10.91L140.83 10.91L140.83 10.91Q141.09 10.02 141.37 9.16L141.37 9.16L141.37 9.16Q141.65 8.29 141.93 7.48L141.93 7.48L141.93 7.48Q141.46 7.70 140.95 8.07L140.95 8.07L140.95 8.07Q140.43 8.44 140.07 8.76L140.07 8.76L140.07 8.76Q139.92 8.68 139.92 8.39L139.92 8.39L139.92 8.39Q140.43 7.69 140.97 7.14L140.97 7.14L140.97 7.14Q141.50 6.59 142.14 5.98L142.14 5.98L142.14 5.98Q142.30 5.82 142.51 5.54L142.51 5.54L142.51 5.54Q142.73 5.26 142.88 4.98L142.88 4.98L142.88 4.98Q143.08 5.04 143.37 5.10L143.37 5.10L143.37 5.10Q143.67 5.17 143.96 5.26L143.96 5.26L143.96 5.26Q144.24 5.35 144.47 5.47L144.47 5.47L144.47 5.47Q144.70 5.60 144.79 5.77L144.79 5.77L144.79 5.77Q144.61 5.92 144.46 6.09L144.46 6.09L144.46 6.09Q144.31 6.26 144.20 6.45L144.20 6.45L144.20 6.45Q143.92 6.96 143.55 7.86L143.55 7.86L143.55 7.86Q143.18 8.76 142.79 9.84L142.79 9.84L142.79 9.84Q142.41 10.91 142.02 12.06L142.02 12.06L142.02 12.06Q141.64 13.22 141.33 14.22L141.33 14.22L141.33 14.22Q141.62 14.20 141.87 14.18L141.87 14.18L141.87 14.18Q142.11 14.17 142.31 14.17ZM157.91 4.93L157.91 4.93L157.91 4.93Q158.06 4.93 158.31 5.03L158.31 5.03L158.31 5.03Q158.56 5.12 158.84 5.29L158.84 5.29L158.84 5.29Q159.11 5.45 159.36 5.65L159.36 5.65L159.36 5.65Q159.60 5.85 159.75 6.06L159.75 6.06L159.75 6.06Q159.26 6.13 158.52 6.52L158.52 6.52L158.52 6.52Q157.77 6.90 156.97 7.53L156.97 7.53L156.97 7.53Q156.17 8.15 155.42 8.97L155.42 8.97L155.42 8.97Q154.67 9.79 154.17 10.71L154.17 10.71L154.17 10.71Q154.50 10.36 154.88 10.04L154.88 10.04L154.88 10.04Q155.26 9.73 155.65 9.48L155.65 9.48L155.65 9.48Q156.03 9.24 156.42 9.09L156.42 9.09L156.42 9.09Q156.80 8.93 157.15 8.92L157.15 8.92L157.15 8.92Q157.44 9.07 157.74 9.32L157.74 9.32L157.74 9.32Q158.03 9.56 158.27 9.85L158.27 9.85L158.27 9.85Q158.51 10.14 158.66 10.46L158.66 10.46L158.66 10.46Q158.82 10.78 158.82 11.10L158.82 11.10L158.82 11.10Q158.82 11.52 158.59 12.04L158.59 12.04L158.59 12.04Q158.35 12.56 157.98 13.08L157.98 13.08L157.98 13.08Q157.60 13.61 157.11 14.10L157.11 14.10L157.11 14.10Q156.62 14.59 156.11 14.97L156.11 14.97L156.11 14.97Q155.60 15.36 155.09 15.59L155.09 15.59L155.09 15.59Q154.59 15.82 154.20 15.82L154.20 15.82L154.20 15.82Q153.10 15.60 152.41 15.01L152.41 15.01L152.41 15.01Q151.72 14.42 151.72 13.44L151.72 13.44L151.72 13.44Q151.72 12.63 151.99 11.75L151.99 11.75L151.99 11.75Q152.26 10.86 152.73 10.00L152.73 10.00L152.73 10.00Q153.19 9.13 153.80 8.31L153.80 8.31L153.80 8.31Q154.42 7.49 155.11 6.82L155.11 6.82L155.11 6.82Q155.81 6.15 156.52 5.65L156.52 5.65L156.52 5.65Q157.23 5.15 157.91 4.93ZM157.12 9.58L157.12 9.58L157.12 9.58Q156.25 9.86 155.54 10.32L155.54 10.32L155.54 10.32Q154.83 10.79 154.32 11.36L154.32 11.36L154.32 11.36Q153.80 11.93 153.52 12.54L153.52 12.54L153.52 12.54Q153.23 13.16 153.23 13.73L153.23 13.73L153.23 13.73Q153.23 13.94 153.30 14.17L153.30 14.17L153.30 14.17Q153.37 14.39 153.50 14.59L153.50 14.59L153.50 14.59Q153.62 14.78 153.79 14.95L153.79 14.95L153.79 14.95Q153.96 15.11 154.14 15.16L154.14 15.16L154.14 15.16Q154.70 14.90 155.31 14.35L155.31 14.35L155.31 14.35Q155.92 13.80 156.43 13.15L156.43 13.15L156.43 13.15Q156.94 12.50 157.28 11.82L157.28 11.82L157.28 11.82Q157.61 11.14 157.61 10.60L157.61 10.60L157.61 10.60Q157.61 10.32 157.50 10.04L157.50 10.04L157.50 10.04Q157.39 9.76 157.12 9.58ZM167.97 12.57L167.97 12.57L167.97 12.57Q167.54 12.57 167.28 12.33L167.28 12.33L167.28 12.33Q167.02 12.08 167.02 11.65L167.02 11.65L167.02 11.65Q167.02 11.58 167.05 11.44L167.05 11.44L167.05 11.44Q167.08 11.30 167.10 11.23L167.10 11.23L167.10 11.23Q167.34 11.27 167.55 11.28L167.55 11.28L167.55 11.28Q167.76 11.28 168.10 11.28L168.10 11.28L168.10 11.28Q168.81 11.28 169.44 11.24L169.44 11.24L169.44 11.24Q170.06 11.20 170.56 11.14L170.56 11.14L170.56 11.14Q171.07 11.09 171.43 11.05L171.43 11.05L171.43 11.05Q171.79 11.00 171.99 11.00L171.99 11.00L171.99 11.00Q172.26 11.00 172.46 11.33L172.46 11.33L172.46 11.33Q172.66 11.65 172.76 12.25L172.76 12.25L172.76 12.25Q172.41 12.21 172.19 12.19L172.19 12.19L172.19 12.19Q171.96 12.18 171.79 12.18L171.79 12.18L171.79 12.18Q171.19 12.18 170.67 12.24L170.67 12.24L170.67 12.24Q170.16 12.31 169.69 12.38L169.69 12.38L169.69 12.38Q169.23 12.45 168.81 12.51L168.81 12.51L168.81 12.51Q168.39 12.57 167.97 12.57ZM188.51 7.36L188.51 7.36L188.51 7.36Q188.51 8.04 188.21 8.67L188.21 8.67L188.21 8.67Q187.91 9.30 187.38 9.93L187.38 9.93L187.38 9.93Q186.84 10.56 186.11 11.22L186.11 11.22L186.11 11.22Q185.37 11.89 184.52 12.63L184.52 12.63L184.52 12.63Q184.13 12.96 183.86 13.23L183.86 13.23L183.86 13.23Q183.58 13.50 183.39 13.74L183.39 13.74L183.39 13.74Q183.19 13.99 183.04 14.22L183.04 14.22L183.04 14.22Q182.90 14.45 182.77 14.71L182.77 14.71L182.77 14.71Q183.89 14.64 185.00 14.21L185.00 14.21L185.00 14.21Q186.12 13.78 186.91 13.08L186.91 13.08L186.91 13.08Q186.97 13.15 187.05 13.29L187.05 13.29L187.05 13.29Q187.14 13.44 187.20 13.63L187.20 13.63L187.20 13.63Q187.26 13.82 187.31 14.04L187.31 14.04L187.31 14.04Q187.36 14.25 187.36 14.46L187.36 14.46L187.36 14.46Q187.36 14.81 187.21 15.06L187.21 15.06L187.21 15.06Q187.07 15.22 186.81 15.30L186.81 15.30L186.81 15.30Q186.55 15.39 186.20 15.43L186.20 15.43L186.20 15.43Q185.85 15.47 185.44 15.48L185.44 15.48L185.44 15.48Q185.04 15.50 184.60 15.50L184.60 15.50L184.60 15.50Q184.18 15.50 183.76 15.52L183.76 15.52L183.76 15.52Q183.34 15.54 182.96 15.59L182.96 15.59L182.96 15.59Q182.57 15.64 182.25 15.74L182.25 15.74L182.25 15.74Q181.92 15.83 181.69 16.00L181.69 16.00L181.69 16.00Q181.36 15.85 181.08 15.55L181.08 15.55L181.08 15.55Q180.81 15.25 180.70 14.90L180.70 14.90L180.70 14.90Q180.78 14.49 180.99 14.14L180.99 14.14L180.99 14.14Q181.20 13.79 181.56 13.41L181.56 13.41L181.56 13.41Q181.92 13.03 182.45 12.59L182.45 12.59L182.45 12.59Q182.98 12.15 183.71 11.55L183.71 11.55L183.71 11.55Q184.52 10.88 185.18 10.29L185.18 10.29L185.18 10.29Q185.84 9.70 186.29 9.16L186.29 9.16L186.29 9.16Q186.75 8.62 186.99 8.10L186.99 8.10L186.99 8.10Q187.24 7.57 187.24 7.03L187.24 7.03L187.24 7.03Q187.24 6.34 186.89 5.95L186.89 5.95L186.89 5.95Q186.54 5.56 185.96 5.56L185.96 5.56L185.96 5.56Q185.56 5.56 185.18 5.75L185.18 5.75L185.18 5.75Q184.80 5.94 184.51 6.27L184.51 6.27L184.51 6.27Q184.21 6.59 184.03 7.02L184.03 7.02L184.03 7.02Q183.85 7.45 183.85 7.92L183.85 7.92L183.85 7.92Q183.85 8.27 183.95 8.55L183.95 8.55L183.95 8.55Q184.06 8.82 184.28 9.10L184.28 9.10L184.28 9.10Q184.09 9.14 183.92 9.14L183.92 9.14L183.92 9.14Q183.58 9.14 183.30 9.03L183.30 9.03L183.30 9.03Q183.02 8.92 182.82 8.72L182.82 8.72L182.82 8.72Q182.62 8.53 182.50 8.26L182.50 8.26L182.50 8.26Q182.39 7.99 182.39 7.67L182.39 7.67L182.39 7.67Q182.39 7.14 182.70 6.66L182.70 6.66L182.70 6.66Q183.01 6.17 183.51 5.81L183.51 5.81L183.51 5.81Q184.02 5.45 184.65 5.23L184.65 5.23L184.65 5.23Q185.29 5.01 185.95 5.01L185.95 5.01L185.95 5.01Q186.52 5.01 187.00 5.18L187.00 5.18L187.00 5.18Q187.47 5.35 187.81 5.66L187.81 5.66L187.81 5.66Q188.15 5.98 188.33 6.41L188.33 6.41L188.33 6.41Q188.51 6.85 188.51 7.36ZM198.55 15.68L198.55 15.68L198.55 15.68Q198.04 15.58 197.62 15.38L197.62 15.38L197.62 15.38Q197.19 15.18 196.89 14.82L196.89 14.82L196.89 14.82Q196.59 14.46 196.41 13.94L196.41 13.94L196.41 13.94Q196.24 13.41 196.24 12.66L196.24 12.66L196.24 12.66Q196.24 11.80 196.48 10.89L196.48 10.89L196.48 10.89Q196.71 9.98 197.14 9.12L197.14 9.12L197.14 9.12Q197.57 8.26 198.15 7.48L198.15 7.48L198.15 7.48Q198.73 6.71 199.42 6.13L199.42 6.13L199.42 6.13Q200.10 5.54 200.87 5.20L200.87 5.20L200.87 5.20Q201.63 4.86 202.41 4.86L202.41 4.86L202.41 4.86Q203 4.86 203.43 5.07L203.43 5.07L203.43 5.07Q203.85 5.29 204.14 5.68L204.14 5.68L204.14 5.68Q204.43 6.06 204.57 6.60L204.57 6.60L204.57 6.60Q204.71 7.14 204.71 7.77L204.71 7.77L204.71 7.77Q204.71 8.60 204.50 9.51L204.50 9.51L204.50 9.51Q204.30 10.42 203.92 11.28L203.92 11.28L203.92 11.28Q203.55 12.15 203.01 12.94L203.01 12.94L203.01 12.94Q202.47 13.73 201.78 14.34L201.78 14.34L201.78 14.34Q201.10 14.94 200.28 15.30L200.28 15.30L200.28 15.30Q199.47 15.67 198.55 15.68ZM197.99 13.23L197.99 13.23L197.99 13.23Q197.99 14.18 198.32 14.57L198.32 14.57L198.32 14.57Q198.66 14.97 199.30 15.08L199.30 15.08L199.30 15.08Q199.93 15.05 200.50 14.60L200.50 14.60L200.50 14.60Q201.07 14.15 201.54 13.46L201.54 13.46L201.54 13.46Q202.02 12.77 202.41 11.92L202.41 11.92L202.41 11.92Q202.79 11.07 203.06 10.23L203.06 10.23L203.06 10.23Q203.32 9.39 203.46 8.64L203.46 8.64L203.46 8.64Q203.60 7.90 203.60 7.41L203.60 7.41L203.60 7.41Q203.60 6.64 203.43 6.15L203.43 6.15L203.43 6.15Q203.25 5.67 202.85 5.57L202.85 5.57L202.85 5.57Q202.20 5.66 201.59 6.08L201.59 6.08L201.59 6.08Q200.98 6.51 200.44 7.15L200.44 7.15L200.44 7.15Q199.91 7.80 199.46 8.60L199.46 8.60L199.46 8.60Q199.01 9.41 198.68 10.23L198.68 10.23L198.68 10.23Q198.35 11.06 198.17 11.84L198.17 11.84L198.17 11.84Q197.99 12.63 197.99 13.23ZM215.66 14.17L215.66 14.17L215.66 14.17Q216.12 14.17 216.38 14.40L216.38 14.40L216.38 14.40Q216.64 14.63 216.64 15.04L216.64 15.04L216.64 15.04Q216.64 15.15 216.62 15.27L216.62 15.27L216.62 15.27Q216.59 15.39 216.57 15.47L216.57 15.47L216.57 15.47Q216.38 15.44 216.16 15.42L216.16 15.42L216.16 15.42Q215.94 15.40 215.63 15.40L215.63 15.40L215.63 15.40Q215.21 15.40 214.77 15.46L214.77 15.46L214.77 15.46Q214.33 15.51 213.91 15.57L213.91 15.57L213.91 15.57Q213.49 15.64 213.09 15.69L213.09 15.69L213.09 15.69Q212.70 15.75 212.37 15.75L212.37 15.75L212.37 15.75Q211.82 15.75 211.43 15.54L211.43 15.54L211.43 15.54Q211.04 15.33 210.90 14.97L210.90 14.97L210.90 14.97Q210.95 14.91 211.17 14.85L211.17 14.85L211.17 14.85Q211.39 14.78 211.70 14.71L211.70 14.71L211.70 14.71Q212.02 14.63 212.42 14.56L212.42 14.56L212.42 14.56Q212.81 14.49 213.23 14.42L213.23 14.42L213.23 14.42Q213.43 13.58 213.68 12.69L213.68 12.69L213.68 12.69Q213.92 11.80 214.18 10.91L214.18 10.91L214.18 10.91Q214.44 10.02 214.72 9.16L214.72 9.16L214.72 9.16Q215.00 8.29 215.28 7.48L215.28 7.48L215.28 7.48Q214.80 7.70 214.29 8.07L214.29 8.07L214.29 8.07Q213.78 8.44 213.42 8.76L213.42 8.76L213.42 8.76Q213.26 8.68 213.26 8.39L213.26 8.39L213.26 8.39Q213.78 7.69 214.31 7.14L214.31 7.14L214.31 7.14Q214.84 6.59 215.49 5.98L215.49 5.98L215.49 5.98Q215.64 5.82 215.86 5.54L215.86 5.54L215.86 5.54Q216.08 5.26 216.23 4.98L216.23 4.98L216.23 4.98Q216.43 5.04 216.72 5.10L216.72 5.10L216.72 5.10Q217.01 5.17 217.30 5.26L217.30 5.26L217.30 5.26Q217.59 5.35 217.82 5.47L217.82 5.47L217.82 5.47Q218.05 5.60 218.13 5.77L218.13 5.77L218.13 5.77Q217.95 5.92 217.81 6.09L217.81 6.09L217.81 6.09Q217.66 6.26 217.55 6.45L217.55 6.45L217.55 6.45Q217.27 6.96 216.90 7.86L216.90 7.86L216.90 7.86Q216.52 8.76 216.14 9.84L216.14 9.84L216.14 9.84Q215.75 10.91 215.37 12.06L215.37 12.06L215.37 12.06Q214.98 13.22 214.68 14.22L214.68 14.22L214.68 14.22Q214.97 14.20 215.22 14.18L215.22 14.18L215.22 14.18Q215.46 14.17 215.66 14.17ZM231.73 12.28L231.73 12.28L231.73 12.28Q231.73 13.06 231.40 13.71L231.40 13.71L231.40 13.71Q231.07 14.35 230.55 14.82L230.55 14.82L230.55 14.82Q230.02 15.29 229.36 15.55L229.36 15.55L229.36 15.55Q228.70 15.81 228.06 15.81L228.06 15.81L228.06 15.81Q227.44 15.81 226.90 15.68L226.90 15.68L226.90 15.68Q226.35 15.55 225.94 15.27L225.94 15.27L225.94 15.27Q225.53 14.99 225.29 14.53L225.29 14.53L225.29 14.53Q225.05 14.06 225.05 13.37L225.05 13.37L225.05 13.37Q225.05 12.74 225.28 12.22L225.28 12.22L225.28 12.22Q225.51 11.70 225.93 11.27L225.93 11.27L225.93 11.27Q226.34 10.84 226.91 10.48L226.91 10.48L226.91 10.48Q227.47 10.12 228.14 9.83L228.14 9.83L228.14 9.83Q227.65 9.38 227.30 8.86L227.30 8.86L227.30 8.86Q226.94 8.33 226.94 7.63L226.94 7.63L226.94 7.63Q226.94 7.04 227.24 6.54L227.24 6.54L227.24 6.54Q227.54 6.05 228.01 5.68L228.01 5.68L228.01 5.68Q228.48 5.32 229.07 5.09L229.07 5.09L229.07 5.09Q229.66 4.86 230.23 4.79L230.23 4.79L230.23 4.79Q231.28 5.12 231.95 5.66L231.95 5.66L231.95 5.66Q232.61 6.19 232.61 6.86L232.61 6.86L232.61 6.86Q232.61 7.22 232.40 7.58L232.40 7.58L232.40 7.58Q232.19 7.94 231.83 8.27L231.83 8.27L231.83 8.27Q231.48 8.60 231.02 8.88L231.02 8.88L231.02 8.88Q230.57 9.17 230.09 9.39L230.09 9.39L230.09 9.39Q230.38 9.69 230.68 9.99L230.68 9.99L230.68 9.99Q230.97 10.29 231.20 10.64L231.20 10.64L231.20 10.64Q231.43 10.99 231.58 11.39L231.58 11.39L231.58 11.39Q231.73 11.79 231.73 12.28ZM226.52 13.66L226.52 13.66L226.52 13.66Q226.52 14.06 226.63 14.34L226.63 14.34L226.63 14.34Q226.74 14.63 226.93 14.82L226.93 14.82L226.93 14.82Q227.12 15.01 227.37 15.10L227.37 15.10L227.37 15.10Q227.61 15.19 227.86 15.19L227.86 15.19L227.86 15.19Q228.21 15.19 228.58 15.02L228.58 15.02L228.58 15.02Q228.94 14.84 229.24 14.50L229.24 14.50L229.24 14.50Q229.53 14.17 229.71 13.68L229.71 13.68L229.71 13.68Q229.89 13.19 229.89 12.56L229.89 12.56L229.89 12.56Q229.89 11.89 229.57 11.39L229.57 11.39L229.57 11.39Q229.25 10.89 228.80 10.46L228.80 10.46L228.80 10.46Q228.17 10.82 227.73 11.23L227.73 11.23L227.73 11.23Q227.29 11.63 227.02 12.05L227.02 12.05L227.02 12.05Q226.76 12.46 226.64 12.87L226.64 12.87L226.64 12.87Q226.52 13.29 226.52 13.66ZM231.35 6.54L231.35 6.54L231.35 6.54Q231.35 6.09 231.13 5.82L231.13 5.82L231.13 5.82Q230.92 5.56 230.59 5.50L230.59 5.50L230.59 5.50Q230.30 5.56 229.98 5.72L229.98 5.72L229.98 5.72Q229.66 5.88 229.38 6.12L229.38 6.12L229.38 6.12Q229.11 6.36 228.94 6.64L228.94 6.64L228.94 6.64Q228.76 6.93 228.76 7.22L228.76 7.22L228.76 7.22Q228.76 7.71 228.98 8.11L228.98 8.11L228.98 8.11Q229.21 8.50 229.54 8.86L229.54 8.86L229.54 8.86Q229.81 8.69 230.13 8.41L230.13 8.41L230.13 8.41Q230.44 8.13 230.71 7.81L230.71 7.81L230.71 7.81Q230.99 7.49 231.17 7.16L231.17 7.16L231.17 7.16Q231.35 6.83 231.35 6.54ZM242.23 4.13L242.40 3.95L242.40 3.95Q242.72 4.33 242.98 4.77L242.98 4.77L242.98 4.77Q243.24 5.21 243.43 5.75L243.43 5.75L243.43 5.75Q243.61 6.29 243.71 6.95L243.71 6.95L243.71 6.95Q243.81 7.62 243.81 8.44L243.81 8.44L243.81 8.44Q243.81 10.15 243.39 11.67L243.39 11.67L243.39 11.67Q242.97 13.19 242.28 14.42L242.28 14.42L242.28 14.42Q241.60 15.65 240.72 16.54L240.72 16.54L240.72 16.54Q239.85 17.43 238.95 17.89L238.95 17.89L238.95 17.89Q238.76 17.81 238.54 17.60L238.54 17.60L238.54 17.60Q238.32 17.39 238.13 17.15L238.13 17.15L238.13 17.15Q237.94 16.91 237.82 16.70L237.82 16.70L237.82 16.70Q237.69 16.49 237.68 16.41L237.68 16.41L237.68 16.41Q238.78 16.21 239.72 15.40L239.72 15.40L239.72 15.40Q240.65 14.59 241.33 13.43L241.33 13.43L241.33 13.43Q242.00 12.26 242.39 10.91L242.39 10.91L242.39 10.91Q242.77 9.55 242.77 8.26L242.77 8.26L242.77 8.26Q242.77 7.70 242.74 7.11L242.74 7.11L242.74 7.11Q242.70 6.51 242.63 5.95L242.63 5.95L242.63 5.95Q242.56 5.39 242.46 4.92L242.46 4.92L242.46 4.92Q242.35 4.45 242.23 4.13L242.23 4.13Z"></path></g></svg>